<svg width="32" height="32" viewBox="0 0 32 32" fill="none" xmlns="http://www.w3.org/2000/svg">
<g clip-path="url(#clip0_1_54)">
<path d="M14 32C11.4181 32 8.88646 31.286 6.68502 29.937C4.48358 28.5879 2.69807 26.6564 1.52591 24.3559C0.353746 22.0554 -0.159416 19.4755 0.0431586 16.9016C0.245733 14.3276 1.15615 11.8598 2.67376 9.77101C4.19137 7.68219 6.25706 6.05374 8.64243 5.06569C11.0278 4.07763 13.64 3.76846 16.1901 4.17236C18.7402 4.57626 21.129 5.6775 23.0923 7.35432C25.0556 9.03113 26.5169 11.2182 27.3148 13.6738L25.9833 14.1064C25.2652 11.8964 23.95 9.92802 22.183 8.41888C20.4161 6.90975 18.2662 5.91864 15.9711 5.55513C13.676 5.19162 11.325 5.46987 9.17819 6.35912C7.03135 7.24837 5.17224 8.71398 3.80639 10.5939C2.44054 12.4738 1.62116 14.6949 1.43884 17.0114C1.25653 19.328 1.71837 21.6498 2.77332 23.7203C3.82827 25.7907 5.43522 27.5291 7.41652 28.7433C9.39782 29.9574 11.6763 30.6 14 30.6L14 32Z" fill="black"/>
<path d="M17.292 16.1L15.171 21H14.051L11.937 16.1H13.162L14.653 19.6L16.165 16.1H17.292ZM20.8858 17.234V21H19.8428V20.566C19.5722 20.8927 19.1802 21.056 18.6668 21.056C18.3122 21.056 17.9902 20.9767 17.7008 20.818C17.4162 20.6593 17.1922 20.433 17.0288 20.139C16.8655 19.845 16.7838 19.5043 16.7838 19.117C16.7838 18.7297 16.8655 18.389 17.0288 18.095C17.1922 17.801 17.4162 17.5747 17.7008 17.416C17.9902 17.2573 18.3122 17.178 18.6668 17.178C19.1475 17.178 19.5232 17.3297 19.7938 17.633V17.234H20.8858ZM18.8558 20.16C19.1312 20.16 19.3598 20.0667 19.5418 19.88C19.7238 19.6887 19.8148 19.4343 19.8148 19.117C19.8148 18.7997 19.7238 18.5477 19.5418 18.361C19.3598 18.1697 19.1312 18.074 18.8558 18.074C18.5758 18.074 18.3448 18.1697 18.1628 18.361C17.9808 18.5477 17.8898 18.7997 17.8898 19.117C17.8898 19.4343 17.9808 19.6887 18.1628 19.88C18.3448 20.0667 18.5758 20.16 18.8558 20.16ZM22.9679 21.056C22.5432 21.056 22.2119 20.944 21.9739 20.72C21.7359 20.4913 21.6169 20.1693 21.6169 19.754V15.806H22.7089V19.691C22.7089 19.8497 22.7485 19.9733 22.8279 20.062C22.9119 20.146 23.0285 20.188 23.1779 20.188C23.2339 20.188 23.2899 20.181 23.3459 20.167C23.4065 20.153 23.4532 20.1367 23.4859 20.118L23.5349 20.965C23.3529 21.0257 23.1639 21.056 22.9679 21.056ZM25.6196 20.181C25.8156 20.181 25.9883 20.153 26.1376 20.097C26.2916 20.0363 26.4339 19.943 26.5646 19.817L27.1456 20.447C26.7909 20.853 26.2729 21.056 25.5916 21.056C25.1669 21.056 24.7913 20.9743 24.4646 20.811C24.1379 20.643 23.8859 20.412 23.7086 20.118C23.5313 19.824 23.4426 19.4903 23.4426 19.117C23.4426 18.7483 23.5289 18.417 23.7016 18.123C23.8789 17.8243 24.1193 17.5933 24.4226 17.43C24.7306 17.262 25.0759 17.178 25.4586 17.178C25.8179 17.178 26.1446 17.255 26.4386 17.409C26.7326 17.5583 26.9659 17.7777 27.1386 18.067C27.3159 18.3517 27.4046 18.69 27.4046 19.082L24.6186 19.621C24.6979 19.8077 24.8216 19.9477 24.9896 20.041C25.1623 20.1343 25.3723 20.181 25.6196 20.181ZM25.4586 18.004C25.1833 18.004 24.9593 18.0927 24.7866 18.27C24.6139 18.4473 24.5229 18.6923 24.5136 19.005L26.3476 18.648C26.2963 18.452 26.1913 18.2957 26.0326 18.179C25.8739 18.0623 25.6826 18.004 25.4586 18.004ZM28.9016 17.731C29.0323 17.549 29.2073 17.4113 29.4266 17.318C29.6506 17.2247 29.9073 17.178 30.1966 17.178V18.186C30.0753 18.1767 29.9936 18.172 29.9516 18.172C29.6389 18.172 29.3939 18.2607 29.2166 18.438C29.0393 18.6107 28.9506 18.872 28.9506 19.222V21H27.8586V17.234H28.9016V17.731ZM30.5659 17.234H31.6579V21H30.5659V17.234ZM31.1119 16.709C30.9112 16.709 30.7479 16.6507 30.6219 16.534C30.4959 16.4173 30.4329 16.2727 30.4329 16.1C30.4329 15.9273 30.4959 15.7827 30.6219 15.666C30.7479 15.5493 30.9112 15.491 31.1119 15.491C31.3126 15.491 31.4759 15.547 31.6019 15.659C31.7279 15.771 31.7909 15.911 31.7909 16.079C31.7909 16.261 31.7279 16.4127 31.6019 16.534C31.4759 16.6507 31.3126 16.709 31.1119 16.709Z" fill="#CD4631"/>
<path d="M14.863 22.982C14.471 22.982 14.1747 23.0683 13.974 23.241C13.7733 23.409 13.673 23.6633 13.673 24.004V24.305H15.689V25.215H13.673V27H12.539V24.011C12.539 23.381 12.735 22.891 13.127 22.541C13.5237 22.191 14.0767 22.016 14.786 22.016C15.066 22.016 15.3297 22.0463 15.577 22.107C15.8243 22.163 16.039 22.247 16.221 22.359L15.871 23.255C15.591 23.073 15.255 22.982 14.863 22.982ZM16.3939 23.234H17.4859V27H16.3939V23.234ZM16.9399 22.709C16.7393 22.709 16.5759 22.6507 16.4499 22.534C16.3239 22.4173 16.2609 22.2727 16.2609 22.1C16.2609 21.9273 16.3239 21.7827 16.4499 21.666C16.5759 21.5493 16.7393 21.491 16.9399 21.491C17.1406 21.491 17.3039 21.547 17.4299 21.659C17.5559 21.771 17.6189 21.911 17.6189 22.079C17.6189 22.261 17.5559 22.4127 17.4299 22.534C17.3039 22.6507 17.1406 22.709 16.9399 22.709ZM19.5704 27.056C19.1457 27.056 18.8144 26.944 18.5764 26.72C18.3384 26.4913 18.2194 26.1693 18.2194 25.754V21.806H19.3114V25.691C19.3114 25.8497 19.3511 25.9733 19.4304 26.062C19.5144 26.146 19.6311 26.188 19.7804 26.188C19.8364 26.188 19.8924 26.181 19.9484 26.167C20.0091 26.153 20.0557 26.1367 20.0884 26.118L20.1374 26.965C19.9554 27.0257 19.7664 27.056 19.5704 27.056ZM24.1471 23.234V27H23.1041V26.566C22.8335 26.8927 22.4415 27.056 21.9281 27.056C21.5735 27.056 21.2515 26.9767 20.9621 26.818C20.6775 26.6593 20.4535 26.433 20.2901 26.139C20.1268 25.845 20.0451 25.5043 20.0451 25.117C20.0451 24.7297 20.1268 24.389 20.2901 24.095C20.4535 23.801 20.6775 23.5747 20.9621 23.416C21.2515 23.2573 21.5735 23.178 21.9281 23.178C22.4088 23.178 22.7845 23.3297 23.0551 23.633V23.234H24.1471ZM22.1171 26.16C22.3925 26.16 22.6211 26.0667 22.8031 25.88C22.9851 25.6887 23.0761 25.4343 23.0761 25.117C23.0761 24.7997 22.9851 24.5477 22.8031 24.361C22.6211 24.1697 22.3925 24.074 22.1171 24.074C21.8371 24.074 21.6061 24.1697 21.4241 24.361C21.2421 24.5477 21.1511 24.7997 21.1511 25.117C21.1511 25.4343 21.2421 25.6887 21.4241 25.88C21.6061 26.0667 21.8371 26.16 22.1171 26.16Z" fill="black"/>
</g>
<defs>
<clipPath id="clip0_1_54">
<rect width="32" height="32" fill="white"/>
</clipPath>
</defs>
</svg>
