<svg width="74" height="74" viewBox="0 0 74 74" fill="none" xmlns="http://www.w3.org/2000/svg">
<g clip-path="url(#clip0_1_54)">
<path d="M32 68C26.0985 68 20.3119 66.368 15.28 63.2845C10.2482 60.201 6.16702 55.786 3.48779 50.5277C0.808558 45.2694 -0.364384 39.3726 0.0986439 33.4893C0.561671 27.606 2.64263 21.9653 6.11145 17.1909C9.58028 12.4164 14.3018 8.69427 19.7541 6.43585C25.2064 4.17744 31.177 3.47077 37.0059 4.39397C42.8348 5.31717 48.2948 7.83428 52.7823 11.667C57.2699 15.4997 60.6101 20.4988 62.4338 26.1115L59.3904 27.1003C57.7491 22.0489 54.7429 17.5498 50.7041 14.1003C46.6653 10.6509 41.7513 8.38545 36.5053 7.55457C31.2593 6.72369 25.8858 7.3597 20.9787 9.39227C16.0717 11.4248 11.8223 14.7748 8.70031 19.0718C5.57837 23.3688 3.7055 28.4454 3.28878 33.7404C2.87206 39.0354 3.9277 44.3425 6.33901 49.0749C8.75032 53.8074 12.4234 57.7809 16.952 60.556C21.4807 63.3312 26.6886 64.8 32 64.8L32 68Z" fill="black"/>
<path d="M40.096 32.8L35.248 44H32.688L27.856 32.8H30.656L34.064 40.8L37.52 32.8H40.096ZM48.3105 35.392V44H45.9265V43.008C45.3078 43.7547 44.4118 44.128 43.2385 44.128C42.4278 44.128 41.6918 43.9467 41.0305 43.584C40.3798 43.2213 39.8678 42.704 39.4945 42.032C39.1212 41.36 38.9345 40.5813 38.9345 39.696C38.9345 38.8107 39.1212 38.032 39.4945 37.36C39.8678 36.688 40.3798 36.1707 41.0305 35.808C41.6918 35.4453 42.4278 35.264 43.2385 35.264C44.3372 35.264 45.1958 35.6107 45.8145 36.304V35.392H48.3105ZM43.6705 42.08C44.2998 42.08 44.8225 41.8667 45.2385 41.44C45.6545 41.0027 45.8625 40.4213 45.8625 39.696C45.8625 38.9707 45.6545 38.3947 45.2385 37.968C44.8225 37.5307 44.2998 37.312 43.6705 37.312C43.0305 37.312 42.5025 37.5307 42.0865 37.968C41.6705 38.3947 41.4625 38.9707 41.4625 39.696C41.4625 40.4213 41.6705 41.0027 42.0865 41.44C42.5025 41.8667 43.0305 42.08 43.6705 42.08ZM53.0694 44.128C52.0987 44.128 51.3414 43.872 50.7974 43.36C50.2534 42.8373 49.9814 42.1013 49.9814 41.152V32.128H52.4774V41.008C52.4774 41.3707 52.568 41.6533 52.7494 41.856C52.9414 42.048 53.208 42.144 53.5494 42.144C53.6774 42.144 53.8054 42.128 53.9334 42.096C54.072 42.064 54.1787 42.0267 54.2534 41.984L54.3654 43.92C53.9494 44.0587 53.5174 44.128 53.0694 44.128ZM59.1305 42.128C59.5785 42.128 59.9732 42.064 60.3145 41.936C60.6665 41.7973 60.9918 41.584 61.2905 41.296L62.6185 42.736C61.8078 43.664 60.6238 44.128 59.0665 44.128C58.0958 44.128 57.2372 43.9413 56.4905 43.568C55.7438 43.184 55.1678 42.656 54.7625 41.984C54.3572 41.312 54.1545 40.5493 54.1545 39.696C54.1545 38.8533 54.3518 38.096 54.7465 37.424C55.1518 36.7413 55.7012 36.2133 56.3945 35.84C57.0985 35.456 57.8878 35.264 58.7625 35.264C59.5838 35.264 60.3305 35.44 61.0025 35.792C61.6745 36.1333 62.2078 36.6347 62.6025 37.296C63.0078 37.9467 63.2105 38.72 63.2105 39.616L56.8425 40.848C57.0238 41.2747 57.3065 41.5947 57.6905 41.808C58.0852 42.0213 58.5652 42.128 59.1305 42.128ZM58.7625 37.152C58.1332 37.152 57.6212 37.3547 57.2265 37.76C56.8318 38.1653 56.6238 38.7253 56.6025 39.44L60.7945 38.624C60.6772 38.176 60.4372 37.8187 60.0745 37.552C59.7118 37.2853 59.2745 37.152 58.7625 37.152ZM66.6322 36.528C66.9309 36.112 67.3309 35.7973 67.8322 35.584C68.3442 35.3707 68.9309 35.264 69.5922 35.264V37.568C69.3149 37.5467 69.1282 37.536 69.0322 37.536C68.3176 37.536 67.7576 37.7387 67.3522 38.144C66.9469 38.5387 66.7442 39.136 66.7442 39.936V44H64.2482V35.392H66.6322V36.528ZM70.4364 35.392H72.9324V44H70.4364V35.392ZM71.6844 34.192C71.2257 34.192 70.8524 34.0587 70.5644 33.792C70.2764 33.5253 70.1324 33.1947 70.1324 32.8C70.1324 32.4053 70.2764 32.0747 70.5644 31.808C70.8524 31.5413 71.2257 31.408 71.6844 31.408C72.143 31.408 72.5164 31.536 72.8044 31.792C73.0924 32.048 73.2364 32.368 73.2364 32.752C73.2364 33.168 73.0924 33.5147 72.8044 33.792C72.5164 34.0587 72.143 34.192 71.6844 34.192Z" fill="#CD4631"/>
<path d="M34.544 48.816C33.648 48.816 32.9707 49.0133 32.512 49.408C32.0533 49.792 31.824 50.3733 31.824 51.152V51.84H36.432V53.92H31.824V58H29.232V51.168C29.232 49.728 29.68 48.608 30.576 47.808C31.4827 47.008 32.7467 46.608 34.368 46.608C35.008 46.608 35.6107 46.6773 36.176 46.816C36.7413 46.944 37.232 47.136 37.648 47.392L36.848 49.44C36.208 49.024 35.44 48.816 34.544 48.816ZM38.0432 49.392H40.5392V58H38.0432V49.392ZM39.2912 48.192C38.8326 48.192 38.4592 48.0587 38.1712 47.792C37.8832 47.5253 37.7392 47.1947 37.7392 46.8C37.7392 46.4053 37.8832 46.0747 38.1712 45.808C38.4592 45.5413 38.8326 45.408 39.2912 45.408C39.7499 45.408 40.1232 45.536 40.4112 45.792C40.6992 46.048 40.8432 46.368 40.8432 46.752C40.8432 47.168 40.6992 47.5147 40.4112 47.792C40.1232 48.0587 39.7499 48.192 39.2912 48.192ZM45.3038 58.128C44.3331 58.128 43.5758 57.872 43.0318 57.36C42.4878 56.8373 42.2158 56.1013 42.2158 55.152V46.128H44.7118V55.008C44.7118 55.3707 44.8024 55.6533 44.9838 55.856C45.1758 56.048 45.4424 56.144 45.7838 56.144C45.9118 56.144 46.0398 56.128 46.1678 56.096C46.3064 56.064 46.4131 56.0267 46.4878 55.984L46.5998 57.92C46.1838 58.0587 45.7518 58.128 45.3038 58.128ZM55.7649 49.392V58H53.3809V57.008C52.7622 57.7547 51.8662 58.128 50.6929 58.128C49.8822 58.128 49.1462 57.9467 48.4849 57.584C47.8342 57.2213 47.3222 56.704 46.9489 56.032C46.5755 55.36 46.3889 54.5813 46.3889 53.696C46.3889 52.8107 46.5755 52.032 46.9489 51.36C47.3222 50.688 47.8342 50.1707 48.4849 49.808C49.1462 49.4453 49.8822 49.264 50.6929 49.264C51.7915 49.264 52.6502 49.6107 53.2689 50.304V49.392H55.7649ZM51.1249 56.08C51.7542 56.08 52.2769 55.8667 52.6929 55.44C53.1089 55.0027 53.3169 54.4213 53.3169 53.696C53.3169 52.9707 53.1089 52.3947 52.6929 51.968C52.2769 51.5307 51.7542 51.312 51.1249 51.312C50.4849 51.312 49.9569 51.5307 49.5409 51.968C49.1249 52.3947 48.9169 52.9707 48.9169 53.696C48.9169 54.4213 49.1249 55.0027 49.5409 55.44C49.9569 55.8667 50.4849 56.08 51.1249 56.08Z" fill="black"/>
</g>
<defs>
<clipPath id="clip0_1_54">
<rect width="74" height="74" fill="white"/>
</clipPath>
</defs>
</svg>
